<svg xmlns="http://www.w3.org/2000/svg" xmlns:xlink="http://www.w3.org/1999/xlink" version="1.1" x="0px" y="50px" viewBox="0 -10 50 62.5" enable-background="new 0 0 50 50" xml:space="preserve"><g><path d="M44.65,25.482c-0.274-1.995-1.526-3.17-2.195-3.43c-0.661-0.26-2.072-0.132-2.934-0.053   c-0.858,0.079-0.665,0.118-1.995-0.236c-2.973-1.525-5.4-1.486-5.4-1.486s0.979,0.549,2.034,0.901   c-5.204-0.939-11.74-6.496-11.74-6.496s-0.116-0.86-0.508-0.704c-6.299,1.133-11.819,7.785-11.819,7.785s0.6,0.458,0.732,0.616   c-1.775-0.756-3.288,0.885-4.227,1.747c-0.938,0.86-1.541,0.704-1.93,0.653c0.834,0.886,2.086,0.183,2.712-0.262   c0.626-0.443,2.011-0.625,2.011-0.625l1.381,0.157l-0.86,0.104c0,0,0.6,0.496,0.833,0.991c0.236,0.496,0.472,0.811,1.228,1.356   c0.756,0.549,1.513,2.141,1.773,2.323c0.26,0.184,1.409-0.158,1.617-0.495c0.209-0.34,0.028-1.279-0.183-1.8   c0.34-0.653,0.524-2.194,0.132-3.731c0.835,0.573,0.731,2.739,0.731,2.739s1.409-1.045,2.426-1.958   c-0.732-1.069-0.445-3.052-0.132-3.129c-0.625,1.539,0.677,3.391,0.677,3.391l-2.66,2.218c0,0-0.155,1.017-0.13,1.694   c0.026,0.679-0.181,0.341,0.468,0.392c0.653,0.053,2.247,0.549,2.793,1.253c0.549,0.707,1.982-0.158,1.982-0.158l2.322,0.105   l-1.243-1.729c0.389,0.5,1.271,1.458,2.809,2.2c2.166,1.042,6.158-0.703,7.593-1.539c-1.568-0.913-1.646-3.446-1.098-4.07   c-0.598,3.13,2.505,4.695,3.42,4.955c0.911,0.261,2.188,0.704,3.286,1.936c1.098,1.224,1.175,2.863,1.175,2.863   s-0.862,1.098-1.045,1.675c0.391,0.569,3.155,0.154,3.155,0c0-0.162-0.13-0.915-0.415-2.533c-0.939-1.484-1.146-4.408-1.146-4.408   s-0.524-0.417-0.862-0.731c-0.341-0.313-0.341-0.261-0.341-1.174c0.105-2.791-1.745-4.043-2.92-4.436   c1.017-0.311,2.216,0.941,2.427,1.149c0.204,0.209,2.294-0.183,2.294-0.183s0.834-0.26,1.407-0.024   c1.541,0.781,1.565,2.243,1.541,2.582s-0.654,0-1.436-0.289c-0.78-0.285-1.224-0.339-2.009,0.157   c-0.784,0.496,0.285,2.69,0.468,3.08c-0.154-0.39,0.317-1.228,0.443-1.748c0.134-0.522-0.231-0.86-0.545-0.86   c0.443-0.6,2.255,0.129,2.727,0.405C43.943,26.892,44.806,26.578,44.65,25.482z M12.209,25.692c-0.102,0-0.185-0.211-0.185-0.47   c0-0.259,0.083-0.47,0.185-0.47c0.099,0,0.181,0.211,0.181,0.47C12.39,25.48,12.308,25.692,12.209,25.692z M24.102,25.692   c-3.785,0.287-4.616,1.122-4.616,1.122l1.657,0.86l0.9-0.397l-0.9,0.711l-2.178-0.887c0,0-0.445-0.105-0.785,0   c0.809-0.758,4.251-1.565,5.479-1.643c0.892-2.429,0.156-3.81,0.156-3.81C24.417,22.561,24.209,25.43,24.102,25.692z"/><path d="M25.069,30.229c0,0,0.966,0.236,1.93,0.366c0.132,0.419,0.235,0.573,0.235,0.573s0.053,1.565,0.209,1.777   c-0.313,0.204-1.905,0.626-2.87,0c0.496-0.419,1.018-1.193,1.018-1.193L25.069,30.229z"/></g></svg>